<?xml version="1.0" encoding="UTF-8" standalone="no"?>
<svg
   width="100%"
   height="100%"
   viewBox="0 0 512 512"
   version="1.1"
   id="svg3"
   sodipodi:docname="stats.svg"
   inkscape:version="1.1 (c4e8f9ed74, 2021-05-24)"
   xmlns:inkscape="http://www.inkscape.org/namespaces/inkscape"
   xmlns:sodipodi="http://sodipodi.sourceforge.net/DTD/sodipodi-0.dtd"
   xmlns="http://www.w3.org/2000/svg"
   xmlns:svg="http://www.w3.org/2000/svg">
  <defs
     id="defs7" />
  <sodipodi:namedview
     id="namedview5"
     pagecolor="#ffffff"
     bordercolor="#666666"
     borderopacity="1.0"
     inkscape:pageshadow="2"
     inkscape:pageopacity="0.0"
     inkscape:pagecheckerboard="0"
     showgrid="false"
     inkscape:zoom="1.5742188"
     inkscape:cx="172.14888"
     inkscape:cy="256"
     inkscape:window-width="1904"
     inkscape:window-height="1018"
     inkscape:window-x="6"
     inkscape:window-y="30"
     inkscape:window-maximized="1"
     inkscape:current-layer="svg3" />
  <path
     id="rect396"
     style="opacity:0.99;fill:#66a1cb;fill-opacity:1;stroke:none;stroke-width:12.5044"
     d="M 387,0 C 373.15,0 362,11.15 362,25 V 491.85352 C 450.43589,456.55301 512,378.54339 512,288 V 25 C 512,11.15 500.85,0 487,0 Z M 25,105 C 11.15,105 0,116.15 0,130 v 158 c 0,90.54339 61.564106,168.55301 150,203.85352 V 130 c 0,-13.85 -11.15,-25 -25,-25 z m 181,90 c -13.85,0 -25,11.15 -25,25 V 502.19336 C 204.72642,508.55499 229.90505,512 256,512 c 26.09495,0 51.27358,-3.44501 75,-9.80664 V 220 c 0,-13.85 -11.15,-25 -25,-25 z" />
</svg>
